<!-- 
  © Newspaper Reports 2001 - 2025
  This SVG file is protected by copyright.
  Unauthorized use, copying or redistribution is strictly prohibited.
-->
<!-- cloud+sun.svg -->
<svg xmlns="http://www.w3.org/2000/svg" viewBox="0 0 28 19">
  <path fill="#FFF" d="M20.9 15.23c-1.11 0-2.2-.4-3.04-1.1l-.88-.74-.62.96a4 4 0 01-6.32.54l-.54-.58-.7.38A4.02 4.02 0 116.9 7.14h.73l.23-.69a6.17 6.17 0 0111.2-1.12l.35.6.7-.1a4.74 4.74 0 11.8 9.4m-.46-11.49A8.2 8.2 0 006.17 5.16 6.06 6.06 0 109.1 16.79a6.06 6.06 0 008.32-.5 6.78 6.78 0 0010.25-5.8 6.75 6.75 0 00-7.22-6.75"/>
</svg>
