<!-- 
  © Newspaper Reports 2001 - 2025
  This SVG file is protected by copyright.
  Unauthorized use, copying or redistribution is strictly prohibited.
-->
<!-- cloudy+sun.svg -->
<svg xmlns="http://www.w3.org/2000/svg" viewBox="0 0 25 19">
  <path xmlns="http://www.w3.org/2000/svg" fill="#FFF" d="M15.07 2.88a.65.65 0 01.92.92l-1.33 1.33-.05.03c1.7.2 3.24 1.11 4.22 2.52a4.9 4.9 0 11-2.2 9.1 4.36 4.36 0 01-6.03.36 4.4 4.4 0 01-5.61-2.34l-.81.8a.65.65 0 01-.92 0 .65.65 0 010-.91l1.32-1.33.07-.04c-.01-.09-.03-.17-.03-.26 0-1.08.4-2.07 1.05-2.84a4.07 4.07 0 015.82-4.57c.7-.31 1.46-.49 2.25-.52a.65.65 0 010-.92zM13.94 6.6A4.47 4.47 0 009.7 9.64l-.17.5H9a2.92 2.92 0 101.4 5.47l.5-.27.38.42a2.9 2.9 0 004.58-.4l.46-.69.63.53a3.44 3.44 0 101.62-6.02l-.5.09-.25-.44a4.49 4.49 0 00-3.88-2.24zm-10.8 2a.65.65 0 010 1.3H1.28a.65.65 0 110-1.3zm.12-5.7a.65.65 0 01.92 0L5.5 4.2a.65.65 0 01-.92.92L3.26 3.8a.65.65 0 010-.92zM9.62.24c.36 0 .65.29.65.65v1.87a.65.65 0 01-1.3 0V.9c0-.36.3-.65.65-.65z"/>
</svg>
