<!-- 
  © Newspaper Reports 2001 - 2025
  This SVG file is protected by copyright.
  Unauthorized use, copying or redistribution is strictly prohibited.
-->
<!-- fog.svg -->
<svg viewBox="0 0 24 24" version="1.1" xml:space="preserve" xmlns="http://www.w3.org/2000/svg" xmlns:xlink="http://www.w3.org/1999/xlink">
<g id="Layer_1"/>
<g id="Layer_2">
<g>
<path fill="#FFF" d="M18,19c-0.7,0-1.4-0.2-2.1-0.6c-0.6-0.4-1.3-0.4-1.9,0c-1.2,0.8-2.9,0.8-4.1,0c-0.6-0.4-1.3-0.4-1.9,0    c-1.2,0.8-2.9,0.8-4.1,0l-1.5-1C2,17.1,1.9,16.5,2.2,16s0.9-0.6,1.4-0.3l1.5,1c0.6,0.4,1.3,0.4,1.9,0c1.2-0.8,2.9-0.8,4.1,0    c0.6,0.4,1.3,0.4,1.9,0c1.2-0.8,2.9-0.8,4.1,0c0.6,0.4,1.3,0.4,1.9,0l1.5-1c0.5-0.3,1.1-0.2,1.4,0.3c0.3,0.5,0.2,1.1-0.3,1.4    l-1.5,1C19.4,18.8,18.7,19,18,19z"/>
</g>
<g>
<path fill="#FFF" d="M18,22c-0.7,0-1.4-0.2-2.1-0.6c-0.6-0.4-1.3-0.4-1.9,0c-1.2,0.8-2.9,0.8-4.1,0c-0.6-0.4-1.3-0.4-1.9,0    c-1.2,0.8-2.9,0.8-4.1,0l-1.5-1C2,20.1,1.9,19.5,2.2,19c0.3-0.5,0.9-0.6,1.4-0.3l1.5,1c0.6,0.4,1.3,0.4,1.9,0    c1.2-0.8,2.9-0.8,4.1,0c0.6,0.4,1.3,0.4,1.9,0c1.2-0.8,2.9-0.8,4.1,0c0.6,0.4,1.3,0.4,1.9,0l1.5-1c0.5-0.3,1.1-0.2,1.4,0.3    c0.3,0.5,0.2,1.1-0.3,1.4l-1.5,1C19.4,21.8,18.7,22,18,22z"/>
</g>
<path fill="#FFF" d="M18.4,7.4h-1c-0.3-1.3-1-2.4-2.1-3.1c-0.5-0.3-1-0.5-1.5-0.6C13.3,2.1,11.8,1,10,1C8.1,1,6.4,2.4,6,4.2H5.2   C3.5,4.2,2,5.7,2,7.5v0.2c0,1.4,0.8,2.6,2,3.1c0,0.1,0,0.2,0,0.3v0.2c0,2,1.6,3.7,3.6,3.7h10.9c2,0,3.6-1.7,3.6-3.7v-0.2   C22,9.1,20.4,7.4,18.4,7.4z M4,7.5c0-0.7,0.6-1.3,1.2-1.3h1.6c0.6,0,1-0.4,1-1C7.9,4,8.8,3,10,3c0.7,0,1.3,0.3,1.7,0.9   c0,0-0.1,0-0.1,0.1C11.5,4,11.4,4,11.3,4c-0.2,0.1-0.3,0.1-0.4,0.2c-0.1,0-0.1,0.1-0.2,0.1c-0.2,0.1-0.3,0.2-0.5,0.3   c0,0-0.1,0-0.1,0.1C9.9,4.9,9.8,5.1,9.6,5.2c0,0.1-0.1,0.1-0.1,0.2C9.4,5.5,9.3,5.7,9.2,5.8C9.1,5.9,9.1,6,9.1,6   C9,6.2,8.9,6.3,8.8,6.5c0,0.1-0.1,0.1-0.1,0.2C8.7,6.9,8.6,7.2,8.5,7.4h-1c-0.3,0-0.5,0-0.7,0.1c-0.1,0-0.1,0-0.1,0   C6.4,7.6,6.2,7.7,6,7.8c0,0-0.1,0-0.1,0.1C5.7,7.9,5.5,8.1,5.3,8.2c0,0-0.1,0-0.1,0.1C5.1,8.4,4.9,8.6,4.8,8.8c0,0,0,0-0.1,0.1   C4.3,8.7,4,8.2,4,7.7V7.5z M20,11.3c0,0.9-0.7,1.7-1.6,1.7H7.6C6.7,13,6,12.2,6,11.3v-0.2c0-0.2,0-0.5,0.1-0.7c0.3-0.6,0.8-1,1.4-1   h1.9c0.6,0,1-0.4,1-1c0-1.5,1.1-2.7,2.6-2.7c0.4,0,0.9,0.1,1.3,0.4c0.8,0.5,1.3,1.4,1.3,2.4c0,0.6,0.4,1,1,1h1.9   c0.9,0,1.6,0.8,1.6,1.7V11.3z"/>
</g>
</svg>
