<!-- 
  © Newspaper Reports 2001 - 2025
  This SVG file is protected by copyright.
  Unauthorized use, copying or redistribution is strictly prohibited.
-->
<!-- sun.svg -->
<svg xmlns="http://www.w3.org/2000/svg" viewBox="0 0 19 19">
  <path fill="#FFF" d="M9.7 15.48c.35 0 .64.29.64.65V18a.65.65 0 11-1.3 0v-1.87c0-.36.3-.65.65-.65zm5.03-1.7l1.33 1.32a.65.65 0 11-.92.92l-1.33-1.33a.65.65 0 01.92-.92zm-9.15-.01c.25.25.25.67 0 .92l-1.33 1.33a.65.65 0 01-.92 0 .65.65 0 010-.92l1.33-1.33a.65.65 0 01.92 0zm4.11-8.18a4.07 4.07 0 110 8.13 4.07 4.07 0 010-8.13zM18.04 9a.65.65 0 110 1.3h-1.87a.65.65 0 110-1.3h1.87zM3.22 9a.65.65 0 110 1.3H1.34a.65.65 0 010-1.3h1.88zM16.06 3.3c.25.25.25.67 0 .92l-1.33 1.33a.64.64 0 01-.92 0 .65.65 0 010-.92l1.33-1.33a.65.65 0 01.92 0zm-11.81 0l1.33 1.33a.65.65 0 01-.92.92L3.33 4.2a.65.65 0 01.92-.92zM9.69.65c.36 0 .65.3.65.65v1.88a.65.65 0 11-1.3 0V1.3c0-.35.3-.65.65-.65z"/>
</svg>
