<!-- 
  © Newspaper Reports 2001 - 2025
  This SVG file is protected by copyright.
  Unauthorized use, copying or redistribution is strictly prohibited.
-->
<!-- Refresh Rotate.svg -->
<svg xmlns="http://www.w3.org/2000/svg" width="17" height="20" fill="#1665CF"><path d="M8.8.3a1 1 0 0 1 1.4 0l3 3a1 1 0 0 1 0 1.4l-3 3a1 1 0 0 1-1.4-1.4L10.08 5H8.5C4.95 5 2 7.95 2 11.5S4.95 18 8.5 18s6.5-2.95 6.5-6.5a1 1 0 1 1 2 0c0 4.65-3.85 8.5-8.5 8.5S0 16.15 0 11.5 3.85 3 8.5 3h1.59l-1.3-1.3a1 1 0 0 1 0-1.4Z"/></svg>
